<?xml version="1.0" encoding="UTF-8"?>
<!DOCTYPE svg PUBLIC "-//W3C//DTD SVG 1.1//EN" "http://www.w3.org/Graphics/SVG/1.1/DTD/svg11.dtd">
<svg version="1.1" xmlns="http://www.w3.org/2000/svg" xmlns:xlink="http://www.w3.org/1999/xlink" x="0px" y="0px"
	 preserveAspectRatio="xMidYMid meet" width="347px" height="158px" viewBox="0 0 347 158" enable-background="new 0 0 347 158" xml:space="preserve">


    <path id="bezier" stroke="none" fill="rgb(57, 164, 136)" d="M 115.86,6.48 C 115.86,5.08 115.58,3.12 114.18,2.28 113.34,1.72 111.94,1.72 110.82,1.72 109.42,2 107.46,1.72 106.34,3.12 105.78,3.68 105.5,4.8 105.22,5.64 104.66,7.6 104.1,9.56 103.82,11.24 102.7,16.56 101.58,21.6 101.02,26.92 98.22,43.72 96.54,60.8 95.7,77.88 94.58,101.4 94.02,125.2 94.86,149 94.02,148.16 93.46,147.6 92.62,146.76 90.1,144.52 87.58,142 85.34,139.2 76.1,129.4 67.98,118.76 60.42,107.56 48.38,90.48 37.74,72 30.18,52.12 27.94,45.68 25.98,39.24 24.58,32.52 24.3,30.28 24.02,28.32 23.74,26.08 23.46,24.12 22.9,21.6 20.94,21.04 L 20.66,21.04 22.06,12.64 C 22.34,10.68 22.9,8.72 22.9,6.48 23.18,5.08 22.62,3.12 21.5,2.28 20.38,1.72 19.26,1.72 18.14,1.72 16.46,2 14.5,1.72 13.66,3.12 12.82,3.68 12.54,4.8 12.26,5.64 11.7,7.6 11.42,9.56 10.86,11.24 9.74,16.56 8.9,21.6 8.06,26.92 5.54,43.72 3.86,60.8 3.02,77.88 1.62,102.8 1.06,127.44 2.18,152.36 2.18,153.48 2.74,154.88 3.58,155.16 4.98,155.44 7.22,154.32 7.5,152.92 8.06,150.4 7.78,147.6 8.06,145.08 8.06,140.32 8.34,135.56 8.62,130.8 9.74,113.44 10.86,95.8 12.54,78.44 13.66,67.8 15.06,57.44 16.46,46.8 19.26,56.04 23.46,65 27.94,73.68 36.9,90.76 48.1,107 60.42,121.84 70.22,133.6 80.3,145.08 92.62,154.32 93.46,154.6 94.86,155.44 95.7,154.6 L 95.7,154.6 C 95.98,154.88 96.26,154.88 96.54,155.16 97.94,155.44 100.18,154.32 100.46,152.92 101.02,150.4 100.74,147.6 100.74,145.08 101.02,140.32 101.3,135.56 101.58,130.8 102.42,113.44 103.82,95.8 105.5,78.44 106.9,61.92 109.42,45.4 111.94,28.88 113.06,23.56 113.9,17.96 114.74,12.64 115.3,10.68 115.58,8.72 115.86,6.48 Z M 115.86,6.48" />
    <path id="bezier2" stroke="none" fill="rgb(57, 164, 136)" d="M 188.94,122.4 C 187.26,121.84 185.3,122.68 183.9,123.24 179.98,125.76 168.78,127.72 161.5,126.88 162.9,122.4 163.18,118.76 163.18,114.28 163.18,108.96 162.06,103.08 157.86,98.88 155.06,95.8 149.74,93.56 144.98,93.84 141.62,93.84 137.98,95.52 136.3,97.76 134.9,99.72 134.06,101.96 133.78,104.2 133.78,104.48 133.5,104.48 133.5,104.48 130.14,105.88 128.18,108.68 125.94,111.2 121.46,117.08 118.1,124.08 118.1,130.8 118.1,136.4 119.78,142.84 124.26,147.32 127.06,150.12 132.1,152.08 136.58,152.08 143.58,152.08 150.3,147.04 153.94,142.28 156.46,138.92 158.42,135.56 159.82,131.64 161.5,131.92 163.18,132.2 164.86,132.2 172.7,132.2 180.82,129.4 186.98,125.76 187.26,125.48 187.54,125.2 188.1,124.92 188.66,124.08 190.06,122.68 188.94,122.4 Z M 155.9,114 C 155.9,117.64 155.06,121.56 153.94,125.2 152.26,124.36 150.86,123.8 149.46,122.68 145.54,119.88 143.86,115.4 142.18,111.2 141.06,108.68 141.06,105.88 141.9,103.36 142.18,101.68 143.86,100 145.82,100.28 148.62,100.28 151.42,101.4 152.82,103.08 155.62,106.16 155.9,110.36 155.9,114 Z M 152.82,130.24 C 151.7,132.48 150.58,134.72 149.18,136.96 146.38,140.88 141.9,145.64 136.58,145.64 133.78,145.64 131.26,143.96 129.58,142.28 127.06,138.92 126.22,134.72 126.22,130.8 126.5,125.2 129.3,119.32 132.94,114.56 133.78,113.72 134.34,112.88 135.18,112.04 135.18,112.32 135.18,112.6 135.46,112.88 137.98,117.92 140.5,123.52 145.54,127.16 147.5,128.56 150.02,129.68 152.82,130.24 Z M 152.82,130.24" />
    <path id="bezier3" stroke="none" fill="rgb(57, 164, 136)" d="M 246.06,67.52 C 246.34,66.68 245.78,65.28 244.66,64.72 244.1,64.16 242.98,64.44 242.14,64.44 L 238.22,64.16 216.38,63.04 200.42,62.2 201.26,57.72 C 201.54,55.76 201.82,53.52 202.38,51.56 202.66,49.88 202.66,47.92 201.26,46.8 200.7,46.24 199.58,46.24 198.74,46.52 197.34,46.8 195.66,46.8 195.1,47.92 194.26,49.04 193.98,50.72 193.7,51.84 193.14,54.08 192.58,56.32 192.02,58.56 L 191.46,61.92 168.22,60.8 C 162.9,60.52 157.58,60.24 152.26,59.96 150.3,59.96 148.62,59.96 146.66,59.96 145.26,59.68 143.58,60.24 143.02,61.64 142.74,62.48 142.74,63.32 143.02,64.16 143.3,65.28 143.3,66.96 144.42,67.52 145.26,68.36 146.66,68.36 148.06,68.36 150.58,68.64 153.1,68.92 155.62,68.92 163.18,69.48 171.02,69.48 178.58,69.48 L 189.78,69.76 C 189.22,73.4 188.38,77.32 187.82,80.96 186.14,91.04 184.46,101.12 183.9,111.2 183.34,119.6 183.06,128 184.46,136.12 185.58,141.72 187.54,147.6 191.74,151.52 195.1,154.88 200.14,156.28 204.9,156.28 210.5,156.28 216.1,152.92 220.58,149.28 227.86,143.12 232.9,134.44 236.54,125.76 236.82,124.64 237.1,123.24 236.26,122.4 235.42,121.84 234.02,122.4 232.9,123.24 232.06,123.8 232.06,124.92 231.5,125.76 230.38,128 229.26,129.96 228.14,131.92 224.78,137.24 220.86,142 215.82,145.92 212.74,148.16 208.82,150.12 204.9,150.12 201.26,150.12 197.06,148.16 195.1,145.08 191.18,139.48 191.18,131.92 191.18,124.92 191.18,108.68 194.54,92.16 197.62,76.2 L 198.74,69.76 C 214.14,69.76 229.26,69.48 244.38,68.92 244.94,68.64 245.78,68.36 246.06,67.52 Z M 246.06,67.52" />
    <path id="bezier4" stroke="none" fill="rgb(57, 164, 136)" d="M 292.54,119.32 C 292.54,118.76 292.54,117.92 292.26,117.64 291.98,117.36 291.7,117.08 291.14,117.36 288.9,117.64 287.5,120.16 286.38,122.12 284.98,124.64 283.58,127.16 282.18,129.68 278.54,135.28 274.06,140.32 268.74,144.24 264.82,147.04 260.9,148.16 255.86,147.88 250.26,147.88 244.1,145.92 240.18,142 245.5,137.52 250.26,132.48 254.18,126.88 258.94,119.88 263.42,112.32 265.1,103.92 265.38,101.4 264.54,98.32 262.86,96.36 260.34,93 255.58,90.76 251.38,90.76 246.06,90.76 241.02,94.4 237.38,98.32 230.94,105.6 226.74,115.68 226.74,125.48 226.74,142.84 238.22,155.16 255.86,154.88 263.42,154.6 270.7,150.96 276.3,145.92 283.02,139.2 287.78,130.24 291.7,121.56 291.98,120.72 292.26,120.16 292.54,119.32 Z M 257.26,102.52 C 256.14,110.64 251.66,118.2 246.9,124.92 244.1,129.4 240.74,133.32 237.1,136.96 235.42,133.6 234.58,129.4 234.86,125.48 234.86,118.76 237.66,112.04 241.3,106.44 243.82,103.08 247.18,98.88 251.38,98.6 253.06,98.6 254.74,99.44 255.86,100.28 256.7,100.84 257.54,101.68 257.26,102.52 Z M 257.26,102.52" />
    <path id="bezier5" stroke="none" fill="rgb(57, 164, 136)" d="M 344.9,136.96 C 344.62,136.12 343.22,135.56 342.38,135.56 341.54,135.56 340.98,136.68 340.42,137.24 339.02,138.36 337.9,139.48 336.5,140.32 331.18,143.96 325.02,146.48 318.86,147.6 318.02,147.6 317.18,147.88 316.34,147.88 318.86,144.24 319.98,139.76 320.26,135.28 320.54,127.16 317.18,119.04 313.26,112.04 312.14,109.52 310.46,107 309.06,104.76 308.5,104.2 307.94,103.36 307.38,102.8 307.94,101.4 309.06,99.72 309.34,98.04 309.34,97.2 308.78,96.08 307.94,95.52 307.38,95.24 306.54,94.96 305.7,94.96 304.58,94.68 302.9,94.12 301.78,94.68 299.82,96.36 299.54,99.44 298.42,101.96 296.74,106.16 287.78,129.68 284.14,136.4 283.58,136.4 283.3,136.4 283.02,136.4 282.18,137.24 281.62,138.36 281.62,139.48 281.62,140.32 282.74,140.88 283.58,141.72 284.7,142.84 284.7,143.12 285.82,144.24 288.62,147.32 291.14,149.84 294.78,151.8 297.86,153.2 301.22,154.04 304.3,154.32 304.58,154.32 304.86,154.32 305.14,154.32 311.3,154.88 317.46,154.32 323.34,152.36 331.46,149.84 339.3,144.8 344.62,138.08 344.9,137.8 345.18,137.24 344.9,136.96 Z M 312.14,135.28 C 312.14,138.64 311.58,142 309.62,144.8 308.5,146.48 306.26,147.6 304.3,147.6 301.22,147.6 298.14,147.04 295.62,145.36 292.54,143.96 290.02,141.44 287.78,139.2 293.38,131.08 298.42,122.68 302.34,113.72 L 303.18,112.04 C 304.02,113.44 304.86,114.84 305.42,116.24 308.78,122.12 311.86,128.56 312.14,135.28 Z M 312.14,135.28" />
</svg>
