<?xml version="1.0" encoding="UTF-8"?>
<!DOCTYPE svg PUBLIC "-//W3C//DTD SVG 1.1//EN" "http://www.w3.org/Graphics/SVG/1.1/DTD/svg11.dtd">
<svg version="1.1" xmlns="http://www.w3.org/2000/svg" xmlns:xlink="http://www.w3.org/1999/xlink" x="0px" y="0px"
	 preserveAspectRatio="xMidYMid meet" width="370px" height="162px" viewBox="0 0 370 162" enable-background="new 0 0 370 162" xml:space="preserve">


    <g id="group">
        <path id="bezier" stroke="none" fill="rgb(57, 164, 136)" d="M 183.71,9.72 C 183.71,6.92 184.27,3 182.03,1.04 181.19,0.2 179.51,0.48 178.67,1.04 176.71,2.16 174.75,3 174.19,4.96 172.23,9.44 172.23,14.48 171.39,19.24 169.71,28.48 167.75,37.72 165.51,46.68 159.91,70.2 153.19,93.44 141.99,114.72 137.51,123.68 131.91,132.64 124.35,139.36 119.59,143.56 113.15,146.92 106.71,146.92 103.35,147.2 99.43,146.08 96.63,144.12 92.71,141.32 89.91,136.84 87.95,132.64 86.55,129 85.43,125.36 84.59,121.72 84.87,120.6 85.43,119.48 85.99,118.64 92.43,102.12 96.35,84.76 98.87,67.4 100.55,54.52 101.67,41.36 98.87,28.76 98.59,27.64 98.31,26.8 98.03,25.68 97.47,24.56 95.79,22.6 94.67,23.44 94.39,24 94.11,24.56 93.83,25.4 92.43,25.4 91.03,26.52 90.19,27.36 89.07,28.76 88.51,30.44 87.95,32.12 86.27,35.76 84.59,39.4 83.19,43.32 77.87,58.16 74.51,73.84 73.95,89.8 73.67,99.88 74.23,110.52 75.91,120.6 75.35,122 74.79,123.4 73.95,124.52 69.75,132.64 64.43,140.48 57.15,145.8 53.23,148.6 47.91,150.84 42.87,150.56 38.95,150.56 34.47,149.16 31.39,146.64 25.79,142.44 22.15,136 19.63,129.56 13.19,113.6 11.51,95.68 11.79,78.32 11.79,63.76 12.91,49.2 16.27,35.2 17.11,30.44 18.79,25.96 20.19,21.48 21.31,18.4 23.27,14.48 21.59,11.68 21.03,10.56 19.63,10.28 18.51,10.28 16.55,10.56 14.87,11.12 13.19,12.24 12.63,12.52 12.07,13.64 11.79,14.48 10.95,15.88 10.39,17.28 9.83,18.68 7.87,23.16 6.19,28.2 5.07,32.96 1.43,47.8 0.59,63.2 0.59,78.32 0.59,91.76 1.99,105.2 5.07,118.36 7.03,125.92 9.83,133.76 13.75,140.76 17.11,146.92 21.87,152.52 28.03,156.16 32.51,158.68 37.83,160.08 42.87,160.08 50.71,160.08 58.83,156.44 64.71,151.4 70.59,146.36 75.35,139.92 78.99,132.92 80.11,135.72 81.23,138.52 82.63,141.04 85.15,145.52 88.79,150 93.27,152.52 97.19,155.04 102.23,156.16 106.71,156.44 113.15,156.44 119.31,154.48 124.63,151.12 133.31,146.08 140.03,137.68 145.63,129 158.79,109.12 166.63,85.88 173.07,62.92 176.71,49.76 179.79,36.6 181.75,23.44 182.59,18.96 183.43,14.48 183.71,9.72 Z M 94.39,38 C 94.67,46.68 93.83,55.64 92.43,64.04 90.47,78.32 87.11,92.88 82.07,106.32 81.51,100.72 81.51,95.12 81.23,89.8 81.23,70.2 85.99,50.32 93.83,32.4 94.11,34.36 94.39,36.04 94.39,38 Z M 94.39,38" />
        <path id="bezier2" stroke="none" fill="rgb(57, 164, 136)" d="M 239.15,125.92 C 237.47,125.36 235.51,126.2 234.11,126.76 230.19,129.28 218.99,131.24 211.71,130.4 213.11,125.92 213.39,122.28 213.39,117.8 213.39,112.48 212.27,106.6 208.07,102.4 205.27,99.32 199.95,97.08 195.19,97.36 191.83,97.36 188.19,99.04 186.51,101.28 185.11,103.24 184.27,105.48 183.99,107.72 183.99,108 183.71,108 183.71,108 180.35,109.4 178.39,112.2 176.15,114.72 171.67,120.6 168.31,127.6 168.31,134.32 168.31,139.92 169.99,146.36 174.47,150.84 177.27,153.64 182.31,155.6 186.79,155.6 193.79,155.6 200.51,150.56 204.15,145.8 206.67,142.44 208.63,139.08 210.03,135.16 211.71,135.44 213.39,135.72 215.07,135.72 222.91,135.72 231.03,132.92 237.19,129.28 237.47,129 237.75,128.72 238.31,128.44 238.87,127.6 240.27,126.2 239.15,125.92 Z M 206.11,117.52 C 206.11,121.16 205.27,125.08 204.15,128.72 202.47,127.88 201.07,127.32 199.67,126.2 195.75,123.4 194.07,118.92 192.39,114.72 191.27,112.2 191.27,109.4 192.11,106.88 192.39,105.2 194.07,103.52 196.03,103.8 198.83,103.8 201.63,104.92 203.03,106.6 205.83,109.68 206.11,113.88 206.11,117.52 Z M 203.03,133.76 C 201.91,136 200.79,138.24 199.39,140.48 196.59,144.4 192.11,149.16 186.79,149.16 183.99,149.16 181.47,147.48 179.79,145.8 177.27,142.44 176.43,138.24 176.43,134.32 176.71,128.72 179.51,122.84 183.15,118.08 183.99,117.24 184.55,116.4 185.39,115.56 185.39,115.84 185.39,116.12 185.67,116.4 188.19,121.44 190.71,127.04 195.75,130.68 197.71,132.08 200.23,133.2 203.03,133.76 Z M 203.03,133.76" />
        <path id="bezier3" stroke="none" fill="rgb(57, 164, 136)" d="M 301.03,141.88 C 301.31,141.32 301.31,140.2 300.75,139.92 299.63,139.36 298.23,139.92 297.11,140.76 295.43,141.88 294.31,144.12 292.91,145.52 288.99,148.88 283.95,152.52 278.63,152.52 274.99,152.24 271.07,150.56 268.83,147.76 266.31,144.4 265.75,139.64 265.75,135.16 266.03,126.2 267.15,117.24 270.51,108.84 271.07,106.88 270.51,104.92 268.83,103.8 267.15,102.68 265.19,102.96 263.51,104.08 259.87,107.16 253.99,108.56 249.23,107.72 249.51,107.72 249.23,107.44 249.23,107.16 249.79,105.48 250.35,103.8 250.63,101.84 251.47,99.6 252.03,97.08 251.75,94.56 251.47,93.16 250.35,91.76 248.95,91.2 246.71,90.36 243.63,92.04 242.51,94 239.99,98.2 239.71,103.8 241.11,108.56 239.99,111.92 238.87,115.28 237.75,118.64 234.67,126.2 231.59,134.04 227.11,141.04 225.71,143 224.59,144.96 222.91,146.64 222.07,147.76 220.95,148.32 220.39,149.72 220.11,150.28 220.67,150.84 221.23,151.12 221.79,151.4 222.63,151.4 223.19,151.4 223.75,151.68 224.03,151.12 224.59,150.84 225.43,150.28 225.99,149.44 226.83,148.88 228.79,146.92 230.75,144.4 232.43,141.88 237.75,134.88 241.39,126.76 244.75,118.64 245.31,117.52 245.87,116.4 246.43,115.28 246.71,115.28 246.99,115.56 247.55,115.56 251.47,116.4 255.95,116.12 260.15,114.72 258.75,121.44 258.19,128.44 258.47,135.16 258.47,141.32 260.15,148.32 264.35,152.8 267.99,156.44 273.59,158.4 278.63,158.4 287.31,158.12 295.71,151.12 300.19,143.84 300.47,143.28 300.75,142.44 301.03,141.88 Z M 301.03,141.88" />
        <path id="bezier4" stroke="none" fill="rgb(57, 164, 136)" d="M 369.06,134.88 C 369.06,134.6 369.06,133.76 368.5,133.76 367.1,133.48 365.7,134.32 364.86,135.44 358.98,142.44 352.26,150.28 342.18,150.28 331.54,150.28 324.54,144.4 321.46,134.6 328.46,132.36 334.9,127.88 340.22,122.84 344.14,118.64 347.78,113.04 347.78,107.44 347.78,104.08 346.66,100.16 344.42,97.64 343.02,95.96 340.5,94.56 338.26,94.56 334.35,94.56 330.14,96.24 327.06,98.2 321.18,102.12 316.98,107.72 313.06,113.32 308.86,119.2 305.5,125.64 302.42,132.08 304.38,111.64 307.74,91.48 311.1,71.32 312.78,61.24 314.74,51.16 316.7,41.08 317.26,38 317.82,34.64 318.38,31.28 318.66,29.32 319.22,26.8 318.1,24.84 317.54,24 316.42,24 315.58,24.28 313.9,24.84 312.78,25.96 311.66,27.36 310.26,28.76 310.26,30.72 309.7,32.68 308.86,35.76 308.3,39.12 307.46,42.48 305.5,52 303.54,61.8 301.86,71.6 297.1,99.88 293.18,128.16 292.62,156.72 292.62,158.96 294.3,160.92 296.54,161.2 298.78,161.48 301.02,160.08 301.58,157.84 305.22,143.84 310.82,130.4 318.66,118.36 321.18,114.16 324.26,109.96 328.18,106.6 330.7,103.8 334.34,101.56 338.26,101.28 339.1,101.28 339.66,102.4 339.95,102.96 340.79,104.36 341.34,106.04 341.34,107.44 341.34,111.92 337.98,116.12 334.62,119.2 330.14,123.68 324.54,127.88 318.38,129.28 317.26,129.56 316.42,130.12 315.86,131.24 315.3,132.08 315.02,132.92 315.3,134.04 318.94,147.2 327.9,155.6 341.9,155.6 351.7,155.32 360.38,148.6 366.54,139.64 367.1,139.08 367.66,138.24 367.94,137.4 368.5,136.56 368.78,135.72 369.06,134.88 Z M 369.06,134.88" />
    </g>
</svg>
